<?xml version="1.0" encoding="UTF-8" standalone="no"?>
<!DOCTYPE svg PUBLIC "-//W3C//DTD SVG 20010904//EN"
              "http://www.w3.org/TR/2001/REC-SVG-20010904/DTD/svg10.dtd">

<svg xmlns="http://www.w3.org/2000/svg"
     width="18.0694in" height="18.0694in"
     viewBox="0 0 1301 1301">
  <path id="Selection"
        fill="black" stroke="black" stroke-width="1"
        d="M 639.00,152.71
           C 633.39,154.31 629.39,153.91 624.00,156.81
             618.55,159.73 610.40,164.76 606.17,169.17
             595.65,180.14 590.90,194.83 583.74,207.91
             583.74,207.91 573.53,228.00 573.53,228.00
             573.53,228.00 569.70,236.91 569.70,236.91
             569.70,236.91 565.17,244.04 565.17,244.04
             565.17,244.04 555.91,264.00 555.91,264.00
             555.91,264.00 545.47,284.00 545.47,284.00
             545.47,284.00 537.22,301.83 537.22,301.83
             530.65,314.06 521.24,328.74 521.00,343.00
             521.00,343.00 521.00,497.00 521.00,497.00
             520.99,499.54 521.32,503.48 519.40,505.40
             517.77,507.04 515.14,506.96 513.00,507.00
             513.00,507.00 495.00,507.00 495.00,507.00
             495.00,507.00 412.00,507.00 412.00,507.00
             412.00,507.00 54.00,507.00 54.00,507.00
             44.28,507.02 45.70,507.73 37.83,512.22
             34.89,513.91 33.11,514.37 30.29,516.76
             23.43,522.58 20.02,533.28 20.00,542.00
             20.00,542.00 20.00,625.00 20.00,625.00
             20.00,625.00 20.00,1019.00 20.00,1019.00
             20.02,1028.04 21.43,1030.31 25.76,1038.00
             27.50,1041.08 27.88,1042.59 30.77,1045.03
             32.47,1046.46 39.77,1050.38 41.99,1051.44
             48.49,1054.58 47.54,1054.99 55.00,1055.00
             55.00,1055.00 90.00,1055.00 90.00,1055.00
             90.00,1055.00 323.00,1055.00 323.00,1055.00
             330.22,1055.01 332.85,1054.85 333.00,1063.00
             333.00,1063.00 333.00,1106.00 333.00,1106.00
             333.00,1108.19 333.21,1111.84 331.98,1113.69
             329.65,1117.17 318.07,1116.00 314.00,1116.00
             314.00,1116.00 258.00,1116.00 258.00,1116.00
             244.30,1116.02 236.07,1122.86 236.00,1137.00
             235.96,1144.85 234.84,1160.61 239.70,1166.79
             243.15,1171.18 249.80,1171.94 255.00,1172.00
             255.00,1172.00 316.00,1172.00 316.00,1172.00
             316.00,1172.00 564.00,1172.00 564.00,1172.00
             570.40,1171.99 575.85,1171.69 580.68,1166.79
             585.44,1161.95 585.99,1158.42 586.00,1152.00
             586.03,1138.02 588.46,1123.10 572.00,1117.13
             569.12,1116.09 567.00,1116.04 564.00,1116.00
             564.00,1116.00 498.00,1116.00 498.00,1116.00
             490.78,1115.99 488.15,1116.15 488.00,1108.00
             488.00,1108.00 488.00,1065.00 488.00,1065.00
             488.01,1062.46 487.68,1058.52 489.60,1056.60
             491.39,1054.81 494.65,1055.02 497.00,1055.00
             497.00,1055.00 528.00,1055.00 528.00,1055.00
             528.00,1055.00 661.00,1055.00 661.00,1055.00
             661.00,1055.00 769.00,1055.00 769.00,1055.00
             781.23,1054.83 795.97,1043.31 800.01,1031.83
             801.10,1028.76 800.99,1025.22 801.00,1022.00
             801.00,1022.00 801.00,911.00 801.00,911.00
             801.01,908.46 800.68,904.52 802.60,902.60
             804.23,900.96 806.86,901.04 809.00,901.00
             809.00,901.00 825.00,901.00 825.00,901.00
             825.00,901.00 899.00,901.00 899.00,901.00
             899.00,901.00 1221.00,901.00 1221.00,901.00
             1247.77,900.95 1269.95,875.01 1270.00,849.00
             1270.00,849.00 1270.00,754.00 1270.00,754.00
             1269.88,746.66 1266.86,736.16 1262.81,730.00
             1260.42,726.38 1253.16,718.86 1253.45,715.04
             1253.61,712.82 1260.90,703.81 1262.73,701.00
             1266.90,694.57 1269.87,684.67 1270.00,677.00
             1270.00,677.00 1270.00,582.00 1270.00,582.00
             1269.98,572.32 1266.76,563.20 1261.69,555.00
             1261.69,555.00 1253.65,543.91 1253.65,543.91
             1252.39,539.56 1259.63,532.66 1262.13,529.00
             1267.14,521.69 1269.98,510.82 1270.00,502.00
             1270.00,502.00 1270.00,348.00 1270.00,348.00
             1269.97,334.62 1264.96,325.59 1259.25,314.00
             1259.25,314.00 1255.05,305.00 1255.05,305.00
             1255.05,305.00 1250.11,296.00 1250.11,296.00
             1250.11,296.00 1220.57,237.00 1220.57,237.00
             1220.57,237.00 1216.70,228.00 1216.70,228.00
             1216.70,228.00 1212.71,221.00 1212.71,221.00
             1212.71,221.00 1198.94,193.00 1198.94,193.00
             1196.32,187.82 1189.10,174.32 1185.53,170.32
             1183.34,167.87 1177.87,164.09 1174.96,162.26
             1164.49,155.69 1155.59,152.02 1143.00,152.00
             1143.00,152.00 801.00,152.00 801.00,152.00
             801.00,152.00 693.00,152.00 693.00,152.00
             693.00,152.00 659.00,152.00 659.00,152.00
             652.95,152.00 644.72,151.48 639.00,152.71 Z
           M 640.00,181.11
           C 640.00,181.11 696.00,181.11 696.00,181.11
             696.00,181.11 806.00,181.11 806.00,181.11
             806.00,181.11 1142.00,181.11 1142.00,181.11
             1161.13,181.04 1168.13,192.85 1174.80,209.00
             1174.80,209.00 1187.23,233.00 1187.23,233.00
             1187.23,233.00 1193.17,246.00 1193.17,246.00
             1193.17,246.00 1199.23,257.00 1199.23,257.00
             1199.23,257.00 1207.71,275.00 1207.71,275.00
             1207.71,275.00 1224.69,309.00 1224.69,309.00
             1229.23,318.61 1240.64,336.06 1240.98,346.00
             1241.06,348.25 1241.33,352.45 1239.40,353.98
             1237.60,355.40 1231.41,355.00 1229.00,355.00
             1229.00,355.00 1204.00,355.00 1204.00,355.00
             1204.00,355.00 1082.00,355.00 1082.00,355.00
             1082.00,355.00 558.00,355.00 558.00,355.00
             555.73,355.00 551.55,355.37 549.98,353.40
             548.48,351.40 549.67,346.46 549.98,344.00
             550.84,335.27 554.37,330.55 557.91,323.00
             557.91,323.00 561.77,314.28 561.77,314.28
             561.77,314.28 566.23,307.00 566.23,307.00
             566.23,307.00 570.57,297.09 570.57,297.09
             570.57,297.09 574.16,290.91 574.16,290.91
             574.16,290.91 578.30,281.17 578.30,281.17
             578.30,281.17 583.31,273.00 583.31,273.00
             583.31,273.00 593.30,251.00 593.30,251.00
             593.30,251.00 598.90,242.00 598.90,242.00
             598.90,242.00 607.00,224.99 607.00,224.99
             607.00,224.99 610.29,217.17 610.29,217.17
             610.29,217.17 615.23,209.00 615.23,209.00
             622.00,195.61 623.88,186.38 640.00,181.11 Z
           M 643.09,211.85
           C 635.41,216.45 632.93,227.92 639.47,234.45
             643.97,238.94 650.99,239.99 657.00,240.00
             657.00,240.00 719.00,240.00 719.00,240.00
             719.00,240.00 1017.00,240.00 1017.00,240.00
             1022.44,239.99 1030.44,238.74 1034.45,234.69
             1039.53,229.56 1041.25,224.41 1037.60,218.02
             1036.30,215.74 1035.15,213.92 1032.81,212.58
             1029.73,210.83 1026.41,211.01 1023.00,211.00
             1023.00,211.00 762.00,211.00 762.00,211.00
             762.00,211.00 682.00,211.00 682.00,211.00
             674.02,211.00 649.13,210.14 643.09,211.85 Z
           M 1077.02,211.82
           C 1074.89,212.86 1073.59,213.35 1072.12,215.38
             1069.46,219.03 1069.04,229.22 1071.60,232.94
             1073.24,235.33 1075.45,236.45 1078.00,237.60
             1085.38,240.91 1091.13,240.00 1099.00,240.00
             1099.00,240.00 1132.00,240.00 1132.00,240.00
             1140.64,239.99 1153.68,236.33 1154.86,226.00
             1155.54,220.07 1151.81,213.32 1145.96,211.51
             1144.02,210.91 1141.07,211.00 1139.00,211.00
             1139.00,211.00 1099.00,211.00 1099.00,211.00
             1092.83,211.00 1082.63,210.36 1077.02,211.82 Z
           M 550.31,382.60
           C 555.19,381.42 568.26,382.00 574.00,382.00
             574.00,382.00 620.00,382.00 620.00,382.00
             620.00,382.00 766.00,382.00 766.00,382.00
             766.00,382.00 1232.00,382.00 1232.00,382.00
             1233.99,382.00 1237.81,381.77 1239.40,383.02
             1241.10,384.37 1240.96,387.05 1241.00,389.00
             1241.00,389.00 1241.00,410.00 1241.00,410.00
             1241.00,410.00 1241.00,501.00 1241.00,501.00
             1240.97,515.99 1229.99,526.97 1215.00,527.00
             1215.00,527.00 1079.00,527.00 1079.00,527.00
             1079.00,527.00 806.00,527.00 806.00,527.00
             792.62,526.97 797.26,522.71 789.81,516.84
             789.81,516.84 772.83,507.54 772.83,507.54
             770.78,506.89 768.16,507.00 766.00,507.00
             766.00,507.00 559.00,507.00 559.00,507.00
             547.98,506.98 548.02,503.19 548.00,493.00
             548.00,493.00 548.00,411.00 548.00,411.00
             548.00,411.00 548.00,389.00 548.00,389.00
             548.07,385.62 547.71,384.79 550.31,382.60 Z
           M 1134.00,412.71
           C 1121.01,416.47 1111.11,420.59 1103.80,433.04
             1101.63,436.73 1100.91,441.00 1099.56,445.00
             1098.38,448.49 1096.29,451.18 1096.15,455.00
             1095.98,459.38 1098.41,462.04 1099.64,466.00
             1100.87,469.98 1101.61,474.25 1103.60,477.96
             1107.18,484.65 1117.73,493.48 1125.00,495.95
             1125.00,495.95 1132.00,497.46 1132.00,497.46
             1136.03,498.49 1138.45,500.50 1143.00,499.57
             1143.00,499.57 1149.00,497.49 1149.00,497.49
             1161.62,494.03 1163.38,494.73 1172.50,484.16
             1174.96,481.31 1176.29,480.50 1178.30,476.99
             1181.80,470.85 1180.93,469.39 1182.54,464.00
             1183.34,461.31 1184.48,460.12 1184.85,457.00
             1185.40,452.42 1183.26,449.23 1182.09,445.00
             1177.26,427.43 1167.66,417.87 1150.00,413.56
             1143.51,411.98 1140.80,411.25 1134.00,412.71 Z
           M 616.01,427.72
           C 605.75,431.55 606.00,437.53 606.00,447.00
             606.00,447.00 606.00,461.00 606.00,461.00
             606.00,465.20 605.42,472.38 607.31,476.00
             609.28,479.75 614.90,483.55 619.00,484.40
             623.86,485.42 632.32,479.38 634.15,474.99
             635.06,472.78 634.98,470.34 634.76,468.00
             634.76,468.00 634.76,438.00 634.76,438.00
             632.26,429.15 624.37,425.86 616.01,427.72 Z
           M 688.00,427.84
           C 685.06,429.32 681.48,431.41 679.89,434.46
             678.64,436.84 679.00,442.20 679.00,445.00
             679.00,445.00 679.00,469.00 679.00,469.00
             679.00,471.49 678.80,474.68 680.02,476.91
             682.12,480.74 691.24,485.90 695.58,484.16
             702.47,481.39 705.87,478.67 706.00,471.00
             706.00,471.00 706.00,447.00 706.00,447.00
             706.00,444.18 706.28,437.34 705.40,435.00
             702.81,428.09 694.43,426.12 688.00,427.84 Z
           M 761.01,427.72
           C 756.52,429.40 753.71,431.30 751.85,436.00
             750.70,438.92 751.00,443.77 751.00,447.00
             751.00,447.00 751.00,468.00 751.00,468.00
             751.06,476.85 752.89,479.83 761.00,483.26
             762.96,484.10 764.51,484.97 766.72,484.43
             771.45,483.29 776.21,478.26 778.23,474.00
             780.72,468.73 780.00,463.70 780.00,458.00
             780.00,447.40 781.76,428.64 767.00,427.13
             764.62,426.89 763.27,427.22 761.01,427.72 Z
           M 832.01,427.85
           C 821.35,433.78 822.00,441.39 822.00,452.00
             822.00,452.00 822.00,466.00 822.00,466.00
             822.15,474.66 824.08,478.70 831.91,482.41
             835.90,484.29 836.52,485.53 841.00,483.69
             844.14,482.41 847.51,480.92 849.16,477.81
             851.70,473.03 851.00,465.42 851.00,460.00
             851.00,460.00 851.00,443.00 851.00,443.00
             850.98,434.09 848.09,427.59 838.00,427.06
             835.44,426.92 834.42,427.19 832.01,427.85 Z
           M 905.00,427.77
           C 900.90,429.55 897.62,431.65 895.85,436.00
             894.70,438.84 895.00,443.84 895.00,447.00
             895.00,447.00 895.00,468.00 895.00,468.00
             895.02,470.47 894.92,472.68 895.93,475.00
             897.83,479.37 905.75,485.58 910.72,484.44
             911.83,484.18 913.99,482.87 915.09,482.28
             917.16,481.17 918.85,480.50 920.45,478.66
             925.35,473.05 924.00,460.26 924.00,453.00
             924.00,448.36 924.53,441.18 922.87,437.00
             919.68,429.01 913.21,425.81 905.00,427.77 Z
           M 1135.00,439.47
           C 1142.08,438.32 1149.79,438.43 1154.70,444.48
             1161.84,453.28 1157.25,470.10 1145.91,472.70
             1126.23,477.23 1116.93,454.72 1126.47,444.48
             1128.87,441.90 1131.76,440.60 1135.00,439.47 Z
           M 964.00,441.70
           C 952.20,447.06 948.35,459.85 960.29,467.88
             964.68,470.83 970.89,470.99 976.00,471.00
             976.00,471.00 1045.00,471.00 1045.00,471.00
             1052.50,470.99 1059.51,470.66 1064.78,464.53
             1072.03,456.11 1066.88,444.79 1057.00,441.68
             1054.42,440.88 1051.67,441.00 1049.00,441.00
             1049.00,441.00 993.00,441.00 993.00,441.00
             986.09,441.00 969.82,440.39 964.00,441.70 Z
           M 803.31,557.60
           C 807.88,556.49 814.18,557.00 819.00,557.00
             819.00,557.00 846.00,557.00 846.00,557.00
             846.00,557.00 933.00,557.00 933.00,557.00
             933.00,557.00 1211.00,557.00 1211.00,557.00
             1229.15,557.03 1240.96,566.08 1241.00,585.00
             1241.00,585.00 1241.00,674.00 1241.00,674.00
             1240.97,690.75 1229.48,700.97 1213.00,701.00
             1213.00,701.00 1141.00,701.00 1141.00,701.00
             1141.00,701.00 810.00,701.00 810.00,701.00
             808.01,701.00 804.19,701.23 802.60,699.98
             800.90,698.63 801.04,695.95 801.00,694.00
             801.00,694.00 801.00,675.00 801.00,675.00
             801.00,675.00 801.00,589.00 801.00,589.00
             801.00,589.00 801.00,564.00 801.00,564.00
             801.07,560.62 800.71,559.79 803.31,557.60 Z
           M 78.31,564.60
           C 83.11,563.44 95.40,564.00 101.00,564.00
             101.00,564.00 145.00,564.00 145.00,564.00
             145.00,564.00 287.00,564.00 287.00,564.00
             287.00,564.00 737.00,564.00 737.00,564.00
             738.99,564.00 742.81,563.77 744.40,565.02
             746.10,566.37 745.96,569.05 746.00,571.00
             746.00,571.00 746.00,588.00 746.00,588.00
             746.00,588.00 746.00,663.00 746.00,663.00
             746.00,663.00 746.00,989.00 746.00,989.00
             746.00,990.99 746.23,994.81 744.98,996.40
             742.99,998.92 730.48,998.00 727.00,998.00
             727.00,998.00 672.00,998.00 672.00,998.00
             672.00,998.00 429.00,998.00 429.00,998.00
             429.00,998.00 85.00,998.00 85.00,998.00
             78.26,997.99 76.14,998.49 76.00,991.00
             76.00,991.00 76.00,942.00 76.00,942.00
             76.00,942.00 76.00,758.00 76.00,758.00
             76.00,758.00 76.00,613.00 76.00,613.00
             76.00,613.00 76.00,573.00 76.00,573.00
             76.01,569.28 75.32,567.12 78.31,564.60 Z
           M 1131.00,586.59
           C 1117.91,590.31 1107.06,598.27 1101.55,611.00
             1099.55,615.64 1100.43,616.55 1099.31,620.00
             1098.39,622.81 1096.60,624.90 1096.26,628.00
             1095.81,632.25 1098.53,635.13 1099.60,639.00
             1101.03,644.14 1102.05,649.34 1104.89,654.00
             1110.32,662.90 1125.55,671.85 1136.00,672.00
             1136.00,672.00 1145.00,672.00 1145.00,672.00
             1151.39,671.91 1154.46,670.15 1160.00,667.17
             1169.87,661.87 1177.98,655.35 1181.27,644.00
             1181.27,644.00 1182.29,638.00 1182.29,638.00
             1183.17,634.07 1185.17,632.57 1184.87,628.00
             1184.66,624.56 1183.31,623.00 1182.49,620.00
             1181.10,614.94 1181.93,613.70 1178.75,608.00
             1168.97,590.43 1150.37,583.05 1131.00,586.59 Z
           M 832.01,601.72
           C 819.62,606.35 822.00,621.17 822.00,632.00
             822.00,635.97 821.66,642.36 822.72,645.99
             824.50,652.02 828.44,656.71 835.00,656.98
             841.03,657.23 845.56,656.42 849.11,650.96
             851.94,646.61 851.00,637.27 851.00,632.00
             851.00,621.13 854.67,602.12 839.00,601.05
             836.18,600.86 834.71,601.12 832.01,601.72 Z
           M 903.02,601.98
           C 896.91,605.83 895.04,608.91 895.00,616.00
             895.00,616.00 895.00,637.00 895.00,637.00
             895.00,639.51 894.77,645.62 895.52,647.72
             897.36,652.84 902.67,656.76 908.00,656.98
             912.96,657.18 916.83,657.00 920.16,652.81
             925.10,646.61 924.00,639.39 924.00,632.00
             924.00,619.70 927.42,601.53 910.00,601.02
             906.88,600.93 905.96,601.04 903.02,601.98 Z
           M 1133.00,613.51
           C 1139.28,612.40 1148.90,611.85 1153.70,616.63
             1164.69,627.56 1154.47,648.80 1139.00,646.72
             1121.29,644.35 1116.15,620.27 1133.00,613.51 Z
           M 962.01,615.70
           C 953.81,619.57 949.89,627.84 954.83,636.00
             955.94,637.82 957.28,639.89 959.18,640.98
             961.33,642.20 964.57,642.00 967.00,642.00
             967.00,642.00 1053.00,642.00 1053.00,642.00
             1056.09,641.99 1059.17,642.20 1061.98,640.69
             1069.51,636.65 1070.15,625.28 1064.69,619.30
             1060.82,615.07 1057.28,615.01 1052.00,615.00
             1052.00,615.00 993.00,615.00 993.00,615.00
             985.87,615.00 967.91,614.36 962.01,615.70 Z
           M 803.31,730.60
           C 807.88,729.49 814.18,730.00 819.00,730.00
             819.00,730.00 846.00,730.00 846.00,730.00
             846.00,730.00 934.00,730.00 934.00,730.00
             934.00,730.00 1214.00,730.00 1214.00,730.00
             1224.92,730.02 1236.71,737.14 1240.24,748.00
             1241.12,750.71 1240.99,753.20 1241.00,756.00
             1241.00,756.00 1241.00,847.00 1241.00,847.00
             1240.97,865.08 1226.20,875.97 1209.00,876.00
             1209.00,876.00 1141.00,876.00 1141.00,876.00
             1141.00,876.00 810.00,876.00 810.00,876.00
             808.01,876.00 804.19,876.23 802.60,874.98
             800.90,873.63 801.04,870.95 801.00,869.00
             801.00,869.00 801.00,849.00 801.00,849.00
             801.00,849.00 801.00,763.00 801.00,763.00
             801.00,763.00 801.00,737.00 801.00,737.00
             801.07,733.62 800.71,732.79 803.31,730.60 Z
           M 1129.00,760.68
           C 1118.63,764.60 1109.69,768.77 1104.05,779.04
             1100.45,785.60 1101.16,787.50 1099.31,793.00
             1098.35,795.87 1096.63,797.85 1096.26,801.00
             1095.72,805.63 1098.18,808.09 1099.47,812.00
             1100.99,816.59 1101.25,820.47 1103.80,825.00
             1107.04,830.77 1115.05,838.39 1121.00,841.14
             1124.68,842.84 1126.41,842.66 1128.91,843.53
             1133.36,845.09 1131.61,845.89 1138.00,845.85
             1140.12,846.03 1145.12,846.09 1147.00,845.85
             1147.00,845.85 1153.00,843.49 1153.00,843.49
             1160.80,840.76 1166.84,838.24 1172.63,831.87
             1179.58,824.23 1179.69,819.90 1182.52,811.00
             1183.37,808.33 1184.50,807.00 1184.85,804.00
             1185.42,799.21 1183.52,797.39 1182.54,794.00
             1182.54,794.00 1181.27,787.00 1181.27,787.00
             1179.33,780.36 1171.61,770.73 1166.00,766.84
             1155.98,759.89 1148.47,759.98 1137.00,760.00
             1133.40,760.01 1132.59,759.90 1129.00,760.68 Z
           M 836.00,774.59
           C 819.30,776.16 822.00,791.60 822.00,804.00
             822.00,808.88 821.49,815.48 823.06,820.00
             825.22,826.26 829.11,830.49 836.00,830.95
             845.94,831.61 850.94,825.44 851.00,816.00
             851.00,816.00 851.00,790.00 851.00,790.00
             850.99,786.98 851.20,783.82 849.69,781.09
             846.76,775.81 841.53,774.66 836.00,774.59 Z
           M 909.00,774.71
           C 903.08,775.08 898.72,776.69 895.89,782.42
             894.64,784.94 895.00,790.09 895.00,793.00
             895.00,793.00 895.00,816.00 895.00,816.00
             895.15,824.85 900.93,831.29 910.00,830.98
             919.71,830.65 923.85,822.80 924.00,814.00
             924.00,814.00 924.00,798.00 924.00,798.00
             924.00,785.91 924.36,775.10 909.00,774.71 Z
           M 1135.00,784.56
           C 1143.04,782.98 1149.29,783.76 1154.70,790.48
             1158.19,794.82 1159.49,805.98 1156.98,811.00
             1154.99,814.96 1151.10,817.83 1147.00,819.23
             1145.41,819.77 1142.63,820.62 1141.00,820.67
             1135.57,820.81 1126.56,815.64 1124.02,810.91
             1123.01,809.03 1123.04,807.07 1123.00,805.00
             1122.93,801.03 1122.67,796.68 1124.61,793.09
             1126.74,789.14 1131.02,786.35 1135.00,784.56 Z
           M 965.00,787.73
           C 956.43,790.84 949.83,798.83 954.20,808.00
             955.59,810.92 957.08,813.12 960.02,814.69
             962.85,816.20 965.90,815.99 969.00,816.00
             969.00,816.00 1051.00,816.00 1051.00,816.00
             1055.54,815.99 1059.05,816.05 1062.94,813.23
             1070.01,808.11 1069.86,797.45 1063.66,791.71
             1058.95,787.35 1054.00,787.01 1048.00,787.00
             1048.00,787.00 994.00,787.00 994.00,787.00
             986.92,787.00 971.06,786.37 965.00,787.73 Z" />
</svg>
